<?xml version="1.0" encoding="utf-8"?>
<!-- Generator: Adobe Illustrator 25.1.0, SVG Export Plug-In . SVG Version: 6.00 Build 0)  -->
<svg version="1.1" id="Layer_1" xmlns="http://www.w3.org/2000/svg" xmlns:xlink="http://www.w3.org/1999/xlink" x="0px" y="0px"
	 viewBox="0 0 595.76 190.59" style="enable-background:new 0 0 595.76 190.59;" xml:space="preserve">
<style type="text/css">
	.st0{fill:url(#SVGID_1_);}
	.st1{fill:#BB4F28;}
	.st2{fill:#AC3F25;}
	.st3{fill:#C0822B;}
	.st4{fill:#2160A6;}
	.st5{fill:#1C76AA;}
	.st6{fill:#21ACDB;}
	.st7{font-family:'FinoSans-Regular';}
	.st8{font-size:47.136px;}
	.st9{font-size:47.1359px;}
	.st10{font-size:41.3089px;}
	.st11{fill:#2B3990;}
	.st12{font-family:'MyriadPro-Regular';}
	.st13{font-size:18px;}
</style>
<linearGradient id="SVGID_1_" gradientUnits="userSpaceOnUse" x1="0.8573" y1="94.8047" x2="595.0942" y2="94.8047">
	<stop  offset="0" style="stop-color:#C1E6EA;stop-opacity:0.89"/>
	<stop  offset="1" style="stop-color:#2484C6;stop-opacity:0"/>
	<stop  offset="1" style="stop-color:#2484C6;stop-opacity:0"/>
</linearGradient>
<rect x="0.86" y="-0.63" class="st0" width="594.24" height="190.86"/>
<g>
	<g>
		<path class="st1" d="M167.75,26.79c0.09,8.59-6.28,15.74-14.57,16.81c-0.64,0.09-1.32,0.13-1.99,0.13c1.33-0.01,2.56-0.5,3.51-1.3
			c0.04-0.04,0.09-0.07,0.13-0.12c6.95-6.04,7.72-16.59,1.74-23.6c-3.8-4.46-9.45-6.42-14.85-5.72c2.62-1.76,5.75-2.79,9.13-2.82
			C160.1,10.09,167.66,17.53,167.75,26.79z"/>
		<path class="st2" d="M156.6,18.73c5.57,6.52,5.28,16.11-0.4,22.28c-0.44,0.48-0.92,0.95-1.43,1.39c1.01-0.88,1.64-2.03,1.86-3.26
			c0.01-0.06,0.01-0.12,0.03-0.18c1.45-9.1-4.7-17.69-13.78-19.19c-5.78-0.97-11.35,1.17-15.05,5.19c0.88-3.03,2.62-5.85,5.18-8.05
			C140.03,10.88,150.59,11.7,156.6,18.73z"/>
		<path class="st3" d="M142.88,19.77c8.44,1.4,14.37,8.94,13.97,17.32c-0.03,0.66-0.1,1.32-0.2,1.99c0.22-1.33-0.04-2.62-0.66-3.7
			c-0.03-0.06-0.06-0.1-0.09-0.16c-4.73-7.91-14.94-10.52-22.85-5.82c-5.05,2.98-7.94,8.22-8.19,13.69
			c-1.27-2.88-1.74-6.16-1.19-9.51C125.16,24.42,133.78,18.25,142.88,19.77z"/>
		<path class="st4" d="M133.05,29.4c7.37-4.37,16.72-2.41,21.8,4.26c0.4,0.53,0.78,1.08,1.11,1.65c-0.69-1.16-1.71-1.98-2.88-2.4
			c-0.06-0.01-0.12-0.04-0.16-0.06c-8.69-3.01-18.17,1.58-21.23,10.28c-1.95,5.54-0.82,11.43,2.49,15.77
			c-2.84-1.4-5.31-3.6-7.02-6.52C122.46,44.41,125.09,34.11,133.05,29.4z"/>
		<path class="st5" d="M131.68,43.12c2.85-8.1,11.26-12.64,19.41-10.8c0.64,0.15,1.27,0.32,1.92,0.56
			c-1.26-0.45-2.57-0.41-3.75,0.01c-0.06,0.01-0.12,0.04-0.16,0.06c-8.59,3.29-12.92,12.93-9.68,21.58
			c2.06,5.5,6.69,9.29,12.01,10.47c-3.06,0.75-6.35,0.66-9.54-0.47C133.17,61.45,128.6,51.87,131.68,43.12z"/>
		<path class="st6" d="M139.41,54.53c-3.01-8.05,0.54-16.96,7.96-20.8c0.59-0.31,1.19-0.57,1.81-0.8c-1.26,0.47-2.24,1.35-2.85,2.43
			c-0.03,0.04-0.06,0.1-0.09,0.16c-4.46,8.06-1.61,18.24,6.41,22.78c5.11,2.88,11.07,2.79,15.92,0.28
			c-1.86,2.55-4.45,4.59-7.61,5.79C152.3,67.6,142.66,63.21,139.41,54.53z"/>
	</g>
	<text transform="matrix(0.8403 0 0 1 168.4686 60.7127)" class="st3 st7 st8">SOUTH</text>
	<text transform="matrix(0.8403 0 0 1 268.1552 60.7127)" class="st6 st7 st8">EAST</text>
	<text transform="matrix(0.8403 0 0 1 338.7313 58.896)" class="st5 st7 st9">ANNUITIES</text>
	<text transform="matrix(0.9243 0 0 1 331.4344 58.343)" class="st3 st7 st10">|</text>
</g>
<g>
	<g>
		<path class="st11" d="M92.34,124.71V84.27h2.71l15.76,23.89c3.28,5.05,5.62,8.8,7.59,12.73l0.12-0.09
			c-0.42-5.43-0.46-10.05-0.46-16.41V84.27h2.77v40.44h-2.67l-15.43-23.53c-3.01-4.63-5.77-8.89-7.83-13.08l-0.17,0.09
			c0.33,4.98,0.38,9.33,0.38,16.06v20.46H92.34z"/>
		<path class="st11" d="M149.64,104.61h-16.17v17.68h18.09v2.42h-20.94V84.27h19.98v2.42h-17.13v15.51h16.17V104.61z"/>
		<path class="st11" d="M165.23,124.71l-10.66-40.44h2.91l5.9,22.81c1.35,5.2,2.58,10.06,3.34,13.87h0.15
			c0.66-3.78,2.11-8.59,3.69-13.9l6.64-22.78h2.76l6,22.6c1.29,4.92,2.62,9.96,3.27,14.08h0.13c0.92-4.38,2.21-8.77,3.69-13.92
			l6.63-22.77h2.94l-12.12,40.44h-2.73l-6.1-23.28c-1.57-5.92-2.55-9.93-3.12-13.71h-0.12c-0.66,3.75-1.78,7.74-3.61,13.68
			l-6.87,23.31H165.23z"/>
		<path class="st11" d="M220.92,84.27h2.85v38.04h18.03v2.4h-20.88V84.27z"/>
		<path class="st11" d="M266.82,104.61h-16.17v17.68h18.09v2.42H247.8V84.27h19.98v2.42h-17.13v15.51h16.17V104.61z"/>
		<path class="st11" d="M280.59,110.56l-5,14.14h-2.92l14.62-40.44h2.77l14.56,40.44h-2.96l-5.08-14.14H280.59z M295.72,108.16
			l-4.92-13.51c-0.99-2.81-1.53-4.83-2.11-7.12h-0.15c-0.57,2.35-1.22,4.46-2.1,7l-4.95,13.63H295.72z"/>
		<path class="st11" d="M310.86,84.82c3.1-0.51,6.54-0.87,10.36-0.87c7.37,0,12.95,2,16.27,5.53c3.25,3.36,5.04,7.89,5.04,14.01
			c0,5.94-1.62,11.31-5.28,15.33c-3.56,3.9-9.64,6.2-17.45,6.2c-3.12,0-6.04-0.06-8.95-0.36V84.82z M313.71,122.31
			c1.65,0.25,3.99,0.3,6.53,0.3c12.99,0,19.38-7.26,19.38-18.97c0.09-10.26-5.61-17.28-18.57-17.28c-3.13,0-5.58,0.3-7.33,0.65
			V122.31z"/>
		<path class="st11" d="M367.65,110.56l-5,14.14h-2.92l14.62-40.44h2.77l14.56,40.44h-2.96l-5.08-14.14H367.65z M382.78,108.16
			l-4.92-13.51c-0.99-2.81-1.53-4.83-2.12-7.12h-0.15c-0.57,2.35-1.21,4.46-2.1,7l-4.95,13.63H382.78z"/>
		<path class="st11" d="M397.92,84.27h2.85v38.04h18.03v2.4h-20.88V84.27z"/>
		<path class="st11" d="M443.82,104.61h-16.17v17.68h18.09v2.42H424.8V84.27h19.98v2.42h-17.13v15.51h16.17V104.61z"/>
		<path class="st11" d="M452.76,84.82c2.47-0.56,5.94-0.87,8.75-0.87c5.26,0,8.58,1.14,10.87,3.4c1.74,1.68,2.82,4.38,2.82,7.2
			c0,5.43-3.22,8.94-7.92,10.53v0.12c3.25,1.05,5.29,4.11,6.25,8.59c1.38,6.31,2.17,9.31,3.01,10.9h-2.98
			c-0.65-1.17-1.5-4.74-2.58-9.84c-1.25-5.83-3.74-8.47-9.06-8.7h-6.32v18.54h-2.85V84.82z M455.61,103.86h6.42
			c6.24,0,10.29-3.49,10.29-8.82c0-6.21-4.56-8.73-10.89-8.73c-2.75,0-4.79,0.29-5.82,0.56V103.86z"/>
		<path class="st11" d="M490.72,86.67h-13.18v-2.4h29.22v2.4h-13.18v38.04h-2.85V86.67z"/>
	</g>
</g>
<text transform="matrix(1 0 0 1 121.4489 157.7643)" class="st11 st12 st13">We’ve recieved an Annuity inquery in your area</text>
</svg>
