<?xml version="1.0" encoding="utf-8"?>
<!-- Generator: Adobe Illustrator 25.0.1, SVG Export Plug-In . SVG Version: 6.00 Build 0)  -->
<svg version="1.1" id="Layer_1" xmlns="http://www.w3.org/2000/svg" xmlns:xlink="http://www.w3.org/1999/xlink" x="0px" y="0px"
	 viewBox="0 0 250 100" style="enable-background:new 0 0 250 100;" xml:space="preserve">
<style type="text/css">
	.st0{fill:#BA4E27;}
	.st1{fill:#AC3D24;}
	.st2{fill:#C0822B;}
	.st3{fill:#1E5FA6;}
	.st4{fill:#1976AA;}
	.st5{fill:#1DACDC;}
	.st6{font-family:'FinoSans-Regular';}
	.st7{font-size:23.8585px;}
	.st8{font-size:23px;}
</style>
<g>
	<path class="st0" d="M63.73,30.91c0.12,15.15-8.82,27.75-20.45,29.63c-0.91,0.15-1.84,0.23-2.79,0.24
		c1.88-0.02,3.59-0.88,4.93-2.29c0.06-0.07,0.13-0.13,0.19-0.2c9.75-10.65,10.85-29.23,2.45-41.59C42.71,8.84,34.79,5.38,27.2,6.62
		c3.67-3.09,8.07-4.92,12.81-4.98C52.98,1.47,63.6,14.58,63.73,30.91z"/>
	<path class="st1" d="M48.06,16.71c7.82,11.5,7.41,28.4-0.55,39.26c-0.62,0.85-1.29,1.67-2.01,2.44c1.43-1.54,2.3-3.58,2.61-5.74
		c0.02-0.1,0.03-0.21,0.04-0.31c2.03-16.05-6.6-31.18-19.34-33.84c-8.11-1.7-15.94,2.07-21.13,9.16c1.23-5.34,3.67-10.3,7.27-14.19
		C24.81,2.86,39.63,4.3,48.06,16.71z"/>
	<path class="st2" d="M28.81,18.52C40.67,21,48.97,34.28,48.43,49.04c-0.04,1.16-0.14,2.33-0.29,3.5c0.31-2.33-0.06-4.61-0.93-6.51
		c-0.04-0.09-0.08-0.18-0.13-0.27C40.44,31.81,26.11,27.22,14.99,35.5C7.91,40.77,3.83,49.99,3.48,59.62
		C1.7,54.53,1.03,48.75,1.81,42.86C3.93,26.74,16.02,15.85,28.81,18.52z"/>
	<path class="st3" d="M14.99,35.5c10.35-7.71,23.48-4.26,30.6,7.5c0.56,0.92,1.08,1.9,1.56,2.92c-0.96-2.04-2.4-3.48-4.04-4.24
		c-0.08-0.04-0.16-0.07-0.24-0.11c-12.19-5.31-25.52,2.77-29.81,18.12c-2.73,9.77-1.15,20.14,3.49,27.8
		c-3.96-2.45-7.42-6.34-9.83-11.48C0.13,61.94,3.83,43.81,14.99,35.5z"/>
	<path class="st4" d="M13.07,59.69c4-14.28,15.82-22.28,27.26-19.03c0.9,0.25,1.79,0.58,2.68,0.97c-1.77-0.79-3.62-0.72-5.25,0.02
		c-0.08,0.03-0.16,0.07-0.23,0.11c-12.05,5.8-18.13,22.79-13.59,38.02c2.89,9.7,9.39,16.36,16.86,18.47
		c-4.29,1.33-8.92,1.15-13.39-0.84C15.17,91.99,8.75,75.1,13.07,59.69z"/>
	<path class="st5" d="M23.93,79.78c-4.23-14.18,0.75-29.87,11.17-36.66c0.82-0.53,1.67-1.01,2.55-1.43
		c-1.76,0.83-3.14,2.37-4.01,4.27c-0.04,0.09-0.08,0.18-0.12,0.27c-6.27,14.2-2.26,32.14,8.99,40.13c7.16,5.09,15.54,4.93,22.34,0.5
		c-2.61,4.49-6.24,8.1-10.68,10.2C42.03,102.82,28.49,95.08,23.93,79.78z"/>
</g>
<text transform="matrix(1 0 0 1.1 63.7458 36.0061)"><tspan x="0" y="0" class="st2 st6 st7">SOUTH</tspan><tspan x="60.05" y="0" class="st5 st6 st7">EAST</tspan></text>
<text transform="matrix(1 0 0 1.1 166.3052 36.0059)" class="st4 st6 st7">ANNUITIES</text>
<text transform="matrix(1 0 0 1 161.9118 33.7095)" class="st2 st6 st8">|</text>
</svg>
