<?xml version="1.0" encoding="utf-8"?>
<!-- Generator: Adobe Illustrator 25.0.1, SVG Export Plug-In . SVG Version: 6.00 Build 0)  -->
<svg version="1.1" id="Layer_1" xmlns="http://www.w3.org/2000/svg" xmlns:xlink="http://www.w3.org/1999/xlink" x="0px" y="0px"
	 viewBox="0 0 155 55" style="enable-background:new 0 0 155 55;" xml:space="preserve">
<style type="text/css">
	.st0{fill:#37B8EB;}
	.st1{fill:#12AFD2;}
	.st2{fill:#0088BC;}
	.st3{fill:#0068B3;}
	.st4{fill:#005B99;}
	.st5{fill:#7BC4E9;}
	.st6{fill:#6D6E71;}
	.st7{font-family:'PrioriSansOT-Regular';}
	.st8{font-size:31.6948px;}
</style>
<g>
	<path class="st0" d="M50.27,15.68c-6.67,2.64-15.12,4.07-23.31,0.16c-10.04-4.8-18.3-2.26-23.51,0.78c0.21-0.5,0.44-0.98,0.68-1.46
		c4.04-4.6,11.21-9.81,22.36-8.4c5.1,0.65,9.77-0.38,13.88-2.24C44.62,7.16,48.07,11.04,50.27,15.68z"/>
	<path class="st1" d="M52.44,22.39c-6.97,3.23-16.51,5.6-25.73,1.2C15.34,18.16,6.26,22.12,1.3,25.57c0.21-3.17,0.96-6.19,2.15-8.96
		c5.21-3.04,13.47-5.58,23.51-0.78c8.2,3.92,16.65,2.48,23.31-0.16C51.26,17.77,52,20.02,52.44,22.39z"/>
	<path class="st2" d="M52.91,27.31c0.02,3.9-0.76,7.61-2.19,10.96c-6.99,1.94-15.75,2.51-23.64-2.44
		c-10.36-6.51-19.54-4.02-24.94-1.27c-0.58-2.2-0.9-4.52-0.91-6.91c0-0.7,0.02-1.39,0.07-2.07v0c4.97-3.45,14.04-7.42,25.41-1.99
		c9.22,4.41,18.77,2.03,25.73-1.2C52.74,23.98,52.9,25.63,52.91,27.31z"/>
	<path class="st3" d="M50.72,38.27c-1.57,3.7-3.93,6.96-6.85,9.55c-4.57-0.01-9.34-1.04-13.83-3.86
		c-10.03-6.3-18.95-4.17-24.41-1.53c-1.55-2.38-2.74-5.04-3.49-7.88c5.4-2.75,14.58-5.23,24.94,1.27
		C34.97,40.79,43.73,40.22,50.72,38.27z"/>
	<path class="st4" d="M43.87,47.83c-4.48,3.98-10.28,6.4-16.64,6.44c-8.98,0.06-16.93-4.65-21.6-11.83
		c5.46-2.64,14.38-4.77,24.41,1.53C34.53,46.79,39.3,47.82,43.87,47.83z"/>
	<path class="st5" d="M40.37,4.51c-4.1,1.86-8.78,2.89-13.88,2.24c-11.16-1.42-18.33,3.8-22.36,8.4C8.4,6.61,16.98,0.76,26.9,0.69
		C31.83,0.66,36.44,2.06,40.37,4.51z"/>
</g>
<text transform="matrix(0.3604 0 0 1 53.7373 45.2852)" class="st6 st7 st8">SOUTHEAST ANNUITIES</text>
</svg>
