<?xml version="1.0" encoding="utf-8"?>
<!-- Generator: Adobe Illustrator 25.0.1, SVG Export Plug-In . SVG Version: 6.00 Build 0)  -->
<svg version="1.1" id="Layer_1" xmlns="http://www.w3.org/2000/svg" xmlns:xlink="http://www.w3.org/1999/xlink" x="0px" y="0px"
	 viewBox="0 0 246.88 44.49" style="enable-background:new 0 0 246.88 44.49;" xml:space="preserve">
<style type="text/css">
	.st0{fill:#BA4E27;}
	.st1{fill:#AC3D24;}
	.st2{fill:#C0822B;}
	.st3{fill:#1E5FA6;}
	.st4{fill:#1976AA;}
	.st5{fill:#1DACDC;}
	.st6{font-family:'FinoSans-Regular';}
	.st7{font-size:29.2901px;}
	.st8{font-size:29.29px;}
	.st9{font-size:28.2361px;}
</style>
<g>
	<path class="st0" d="M32.34,13.11c0.06,5.87-4.29,10.76-9.96,11.49c-0.44,0.06-0.9,0.09-1.36,0.09c0.91-0.01,1.75-0.34,2.4-0.89
		c0.03-0.03,0.06-0.05,0.09-0.08c4.75-4.13,5.28-11.34,1.19-16.13c-2.6-3.05-6.46-4.39-10.15-3.91c1.79-1.2,3.93-1.91,6.24-1.93
		C27.11,1.69,32.28,6.78,32.34,13.11z"/>
	<path class="st1" d="M24.72,7.6c3.81,4.46,3.61,11.01-0.27,15.23c-0.3,0.33-0.63,0.65-0.98,0.95c0.69-0.6,1.12-1.39,1.27-2.23
		c0.01-0.04,0.01-0.08,0.02-0.12c0.99-6.22-3.21-12.09-9.42-13.12c-3.95-0.66-7.76,0.8-10.29,3.55c0.6-2.07,1.79-4,3.54-5.5
		C13.39,2.23,20.61,2.79,24.72,7.6z"/>
	<path class="st2" d="M15.34,8.31c5.77,0.96,9.82,6.11,9.55,11.84c-0.02,0.45-0.07,0.9-0.14,1.36c0.15-0.91-0.03-1.79-0.45-2.53
		c-0.02-0.04-0.04-0.07-0.06-0.11c-3.23-5.41-10.21-7.19-15.62-3.98c-3.45,2.04-5.43,5.62-5.6,9.36c-0.87-1.97-1.19-4.21-0.81-6.5
		C3.23,11.49,9.12,7.27,15.34,8.31z"/>
	<path class="st3" d="M8.62,14.89c5.04-2.99,11.43-1.65,14.9,2.91c0.27,0.36,0.53,0.74,0.76,1.13c-0.47-0.79-1.17-1.35-1.97-1.64
		c-0.04-0.01-0.08-0.03-0.11-0.04c-5.94-2.06-12.42,1.08-14.51,7.03c-1.33,3.79-0.56,7.81,1.7,10.78C7.45,34.1,5.76,32.6,4.59,30.6
		C1.38,25.15,3.18,18.11,8.62,14.89z"/>
	<path class="st4" d="M7.68,24.27c1.95-5.54,7.7-8.64,13.27-7.38c0.44,0.1,0.87,0.22,1.31,0.38c-0.86-0.31-1.76-0.28-2.56,0.01
		c-0.04,0.01-0.08,0.03-0.11,0.04c-5.87,2.25-8.83,8.84-6.62,14.75c1.41,3.76,4.57,6.35,8.21,7.16c-2.09,0.51-4.34,0.45-6.52-0.32
		C8.7,36.8,5.58,30.25,7.68,24.27z"/>
	<path class="st5" d="M12.97,32.07c-2.06-5.5,0.37-11.59,5.44-14.22c0.4-0.21,0.81-0.39,1.24-0.55c-0.86,0.32-1.53,0.92-1.95,1.66
		c-0.02,0.03-0.04,0.07-0.06,0.11c-3.05,5.51-1.1,12.47,4.38,15.57c3.49,1.97,7.57,1.91,10.88,0.19c-1.27,1.74-3.04,3.14-5.2,3.96
		C21.78,41,15.19,38,12.97,32.07z"/>
</g>
<text transform="matrix(0.9243 0 0 1.1 32.8296 36.2956)"><tspan x="0" y="0" class="st2 st6 st7">SOUTH</tspan><tspan x="73.72" y="0" class="st5 st6 st7">EAST</tspan></text>
<text transform="matrix(0.9243 0 0 1.1 149.21 36.2956)" class="st4 st6 st8">ANNUITIES</text>
<text transform="matrix(0.9243 0 0 1 144.2227 33.4763)" class="st2 st6 st9">|</text>
</svg>
