<?xml version="1.0" encoding="utf-8"?>
<!-- Generator: Adobe Illustrator 25.0.1, SVG Export Plug-In . SVG Version: 6.00 Build 0)  -->
<svg version="1.1" id="Layer_1" xmlns="http://www.w3.org/2000/svg" xmlns:xlink="http://www.w3.org/1999/xlink" x="0px" y="0px"
	 viewBox="0 0 109.71 80" style="enable-background:new 0 0 109.71 80;" xml:space="preserve">
<style type="text/css">
	.st0{fill:#EA903F;}
	.st1{fill:#D7792A;}
	.st2{fill:#D3A953;}
	.st3{fill:#3A6CAB;}
	.st4{fill:#4382AD;}
	.st5{fill:#84C5E2;}
	.st6{fill:#2887B2;}
	.st7{font-family:'FinoSans-Regular';}
	.st8{font-size:14.0759px;}
	.st9{fill:#2C469D;}
	.st10{font-size:13.5732px;}
</style>
<g>
	<path class="st0" d="M65.3,24.43c0.12,12.27-9,22.48-20.88,24.01c-0.93,0.12-1.88,0.19-2.84,0.2c1.92-0.02,3.67-0.71,5.03-1.85
		c0.07-0.05,0.13-0.11,0.19-0.17c9.95-8.63,11.08-23.68,2.5-33.69c-5.46-6.38-13.54-9.18-21.29-8.18c3.74-2.51,8.23-3.99,13.08-4.04
		C54.33,0.57,65.17,11.19,65.3,24.43z"/>
	<path class="st1" d="M49.31,12.92c7.98,9.32,7.56,23.01-0.56,31.81c-0.64,0.69-1.32,1.35-2.05,1.98c1.46-1.25,2.35-2.9,2.67-4.65
		c0.02-0.08,0.03-0.17,0.04-0.25c2.08-13-6.74-25.26-19.74-27.42c-8.28-1.37-16.27,1.67-21.57,7.42c1.26-4.33,3.74-8.35,7.42-11.5
		C25.57,1.7,40.7,2.87,49.31,12.92z"/>
	<path class="st2" d="M29.66,14.39c12.11,2.01,20.58,12.77,20.02,24.73c-0.04,0.94-0.14,1.89-0.3,2.84
		c0.31-1.89-0.06-3.74-0.95-5.28c-0.04-0.07-0.08-0.15-0.13-0.22c-6.77-11.3-21.4-15.02-32.75-8.31C8.33,32.41,4.17,39.88,3.8,47.69
		c-1.82-4.12-2.5-8.8-1.71-13.58C4.27,21.05,16.61,12.22,29.66,14.39z"/>
	<path class="st3" d="M15.56,28.14c10.57-6.24,23.97-3.45,31.23,6.08c0.57,0.75,1.1,1.54,1.59,2.36c-0.98-1.65-2.45-2.82-4.12-3.43
		c-0.08-0.03-0.16-0.06-0.24-0.09c-12.45-4.3-26.05,2.25-30.43,14.68c-2.79,7.92-1.18,16.32,3.56,22.53
		c-4.04-1.99-7.57-5.14-10.03-9.31C0.38,49.57,4.16,34.87,15.56,28.14z"/>
	<path class="st4" d="M13.59,47.74c4.08-11.57,16.14-18.05,27.83-15.42c0.92,0.2,1.83,0.47,2.74,0.79
		c-1.81-0.64-3.69-0.59-5.36,0.02c-0.08,0.03-0.16,0.06-0.24,0.09c-12.3,4.7-18.51,18.46-13.87,30.81
		c2.95,7.86,9.59,13.26,17.21,14.97c-4.37,1.08-9.1,0.93-13.67-0.68C15.74,73.91,9.19,60.23,13.59,47.74z"/>
	<path class="st5" d="M24.68,64.02c-4.31-11.49,0.77-24.2,11.41-29.7c0.83-0.43,1.7-0.82,2.61-1.16c-1.79,0.67-3.2,1.92-4.1,3.46
		c-0.04,0.07-0.08,0.15-0.13,0.22c-6.4,11.51-2.31,26.04,9.17,32.52c7.31,4.12,15.87,3.99,22.8,0.4c-2.66,3.64-6.37,6.56-10.91,8.27
		C43.15,82.69,29.34,76.42,24.68,64.02z"/>
	<text transform="matrix(1.03 0 0 1 36.4844 58.3174)" class="st6 st7 st8">SOUTHEAST</text>
	<text transform="matrix(1.03 0 0 1 56.2393 69.5078)" class="st9 st7 st10">ANNUITIES</text>
</g>
</svg>
